<svg width="24" height="24" viewBox="0 0 24 24" fill="none" xmlns="http://www.w3.org/2000/svg">
<rect width="24" height="24" rx="5.31131" fill="white"/>
<path d="M10.2111 9.84355C11.9324 11.825 12.9051 12.8018 14.9876 13.7047C15.065 13.7383 15.1557 13.735 15.2307 13.6963C17.703 12.4223 18.7335 11.3021 20.2432 9.28682C20.9111 8.39514 21.0946 7.2298 20.7516 6.16982L20.7025 6.01836C19.9396 3.66097 16.9644 2.92197 15.1741 4.63496C15.1091 4.69716 15.0046 4.69138 14.9473 4.62206C13.513 2.88788 10.7667 3.21306 9.77712 5.23424L9.64691 5.50018C8.94747 6.92868 9.16799 8.6428 10.2111 9.84355Z" fill="url(#paint0_linear_152_7282)"/>
<defs>
<linearGradient id="paint0_linear_152_7282" x1="14.8952" y1="0.923065" x2="14.8952" y2="13.7576" gradientUnits="userSpaceOnUse">
<stop stop-color="#FF5FA9"/>
<stop offset="1" stop-color="#FF2718"/>
</linearGradient>
</defs>
</svg>
