<svg width="25" height="24" viewBox="0 0 25 24" fill="none" xmlns="http://www.w3.org/2000/svg">
<path fill-rule="evenodd" clip-rule="evenodd" d="M3.97309 6.20635C4.87322 5.30649 6.0939 4.80097 7.36669 4.80097C8.63947 4.80097 9.86015 5.30649 10.7603 6.20635L12.1667 7.61155L13.5731 6.20635C14.0159 5.7479 14.5455 5.38223 15.1311 5.13066C15.7168 4.8791 16.3466 4.74669 16.984 4.74115C17.6213 4.73561 18.2534 4.85706 18.8433 5.09841C19.4332 5.33975 19.9691 5.69617 20.4198 6.14685C20.8705 6.59754 21.2269 7.13347 21.4682 7.72337C21.7096 8.31327 21.831 8.94533 21.8255 9.58268C21.8199 10.22 21.6875 10.8499 21.436 11.4355C21.1844 12.0211 20.8187 12.5508 20.3603 12.9935L12.1667 21.1883L3.97309 12.9935C3.07322 12.0934 2.56771 10.8727 2.56771 9.59995C2.56771 8.32716 3.07322 7.10648 3.97309 6.20635V6.20635Z" stroke="#999999" stroke-width="2" stroke-linejoin="round"/>
</svg>
