<svg width="32" height="32" viewBox="0 0 32 32" fill="none" xmlns="http://www.w3.org/2000/svg">
<circle cx="16" cy="16" r="16" fill="#007AFF"/>
<g clip-path="url(#clip0_152_7716)">
<path fill-rule="evenodd" clip-rule="evenodd" d="M18.1735 17.9366L24.2807 11.1945L17.4533 13.8734L4.66666 11.1801L18.1735 17.9366Z" fill="#FF0016"/>
<path fill-rule="evenodd" clip-rule="evenodd" d="M4.91635 23.9169L12.9306 20.7572L27.9075 23.9245L12.0711 15.9359L4.91635 23.9169ZM16.6414 8.56219C16.0803 8.60598 15.5598 8.86554 15.1936 9.28413C14.8273 9.70272 14.6451 10.2463 14.6868 10.7961C14.7731 11.9329 15.8076 12.7969 16.9704 12.7123C17.533 12.67 18.0559 12.4118 18.4254 11.9939C18.7949 11.5761 18.9811 11.0323 18.9436 10.4807C18.8378 9.32029 17.8244 8.46086 16.6414 8.56219Z" fill="white"/>
</g>
<defs>
<clipPath id="clip0_152_7716">
<rect width="23.3333" height="16" fill="white" transform="translate(4.66666 8)"/>
</clipPath>
</defs>
</svg>
