<svg width="45" height="45" viewBox="0 0 45 45" fill="none" xmlns="http://www.w3.org/2000/svg">
<path d="M5.625 22.5C5.625 13.1802 13.1802 5.625 22.5 5.625C31.8198 5.625 39.375 13.1802 39.375 22.5C39.375 31.8198 31.8198 39.375 22.5 39.375C13.1802 39.375 5.625 31.8198 5.625 22.5Z" stroke="url(#paint0_linear_169_7915)" stroke-width="3.71212" stroke-linejoin="round"/>
<path d="M16.1719 18.5449C16.1719 17.2343 17.2343 16.1719 18.5449 16.1719H26.4551C27.7657 16.1719 28.8281 17.2343 28.8281 18.5449V26.4551C28.8281 27.7657 27.7657 28.8281 26.4551 28.8281H18.5449C17.2343 28.8281 16.1719 27.7657 16.1719 26.4551V18.5449Z" stroke="url(#paint1_linear_169_7915)" stroke-width="3.71212" stroke-linejoin="round"/>
<defs>
<linearGradient id="paint0_linear_169_7915" x1="5.625" y1="15.1875" x2="80.0947" y2="21.7031" gradientUnits="userSpaceOnUse">
<stop offset="0.03125" stop-color="#2DDF5F"/>
<stop offset="1" stop-color="#A8E14A"/>
</linearGradient>
<linearGradient id="paint1_linear_169_7915" x1="5.625" y1="15.1875" x2="80.0947" y2="21.7031" gradientUnits="userSpaceOnUse">
<stop offset="0.03125" stop-color="#2DDF5F"/>
<stop offset="1" stop-color="#A8E14A"/>
</linearGradient>
</defs>
</svg>
